# xmcd
#
# Track frame offsets:
#	150
#	11204
#	42563
#	57275
#	69403
#	79341
#	93547
#	125739
#	161771
#	176243
#	194899
#	208271
#	221585
#	233258
#	249257
#	265784
#	281827
#	296615
#	310520
#	325970
#
# Disc length: 4736 seconds
#
# Revision: 1
# Processed by: cddbd v1.5.2PL0 Copyright (c) Steve Scherf et al.
# Submitted via: audiograbber 1.83.01
#
DISCID=38127e14
DTITLE=The Doors - The Very Best Of (40th Anniversaty Edition)
DYEAR=2007
DGENRE=
TTITLE0=Break On Through (to the other side)
TTITLE1=Light My Fire
TTITLE2=Love Me Two Times
TTITLE3=Hello I Love You
TTITLE4=People Are Strange
TTITLE5=Strange Days
TTITLE6=Riders On the Storm
TTITLE7=L.A. Woman
TTITLE8=Touch Me
TTITLE9=Roadhoues Blues
TTITLE10=Peace Frog
TTITLE11=Love Street
TTITLE12=The Crystal Ship
TTITLE13=Soul Kitchen
TTITLE14=Love Her Madly
TTITLE15=Back Door Man
TTITLE16=Alabama Song (Whisky Bar)
TTITLE17=Moonlight Drive
TTITLE18=The Unknown Soldier
TTITLE19=The End
EXTD=Single Disc Edition
EXTT0=
EXTT1=
EXTT2=
EXTT3=
EXTT4=
EXTT5=
EXTT6=
EXTT7=
EXTT8=
EXTT9=
EXTT10=
EXTT11=
EXTT12=
EXTT13=
EXTT14=
EXTT15=
EXTT16=
EXTT17=
EXTT18=
EXTT19=
PLAYORDER=
